# xmcd
#
# Track frame offsets:
#	150
#	29242
#	53095
#	76900
#	97545
#	118600
#	140970
#	158742
#	184557
#	212702
#	235567
#	257722
#	280257
#	300775
#	320745
#
# Disc length: 4645 seconds
#
# Revision: 1
# Processed by: cddbd v1.4PL0 Copyright (c) Steve Scherf et al.
# Submitted via: audiograbber 1.82.00
#
DISCID=c412230f
DTITLE=Various Artist - Dance Train Club Edition 1997 2 - CD 2
DYEAR=1997
DGENRE=Dance
TTITLE0=Natural Born Deejays - A Good Day (12' Mix)
TTITLE1=Three 'n One - Reflect (12' Mix)
TTITLE2=Fiocco - Afflitto (97 Mix)
TTITLE3=B.S. - Darkness Revisited 97 (97 Mix)
TTITLE4=DJ Quicksilver - Bellissima (12' Original Mix)
TTITLE5=MR - To France (DJ Beam's Club Mix)
TTITLE6=BBE - Flash (UK Mix)
TTITLE7=Evergy 52 - Café Del Mar (Three 'n One Remix)
TTITLE8=Kadoc - Rock The Bells (DJ Quicksilver Remix)
TTITLE9=Marvine G - My Body 'n' Soul (Space Frog Mix)
TTITLE10=Brain Bug - Nightmare (Burger Queens Remix)
TTITLE11=Shandrew - Just A Little Bit (12' Mix)
TTITLE12=Natural Born Grooves - Soul System (Club Mix)
TTITLE13=Chicane - Off Shore (Disco Citizens Mix)
TTITLE14=Sneaker Pimps - Spin Spin Sugar (Armands Dark Garage Mix)
EXTD=
EXTT0=
EXTT1=
EXTT2=
EXTT3=
EXTT4=
EXTT5=
EXTT6=
EXTT7=
EXTT8=
EXTT9=
EXTT10=
EXTT11=
EXTT12=
EXTT13=
EXTT14=
PLAYORDER=
